<?xml version="1.0" encoding="utf-8"?>
<!-- Generator: Adobe Illustrator 23.0.1, SVG Export Plug-In . SVG Version: 6.00 Build 0)  -->
<svg version="1.1" id="Camada_1" xmlns="http://www.w3.org/2000/svg" xmlns:xlink="http://www.w3.org/1999/xlink" x="0px" y="0px"
	 viewBox="0 0 276.7 197.8" style="enable-background:new 0 0 276.7 197.8;" xml:space="preserve">
<style type="text/css">
	.st0{display:none;fill:#29157C;}
	.st1{fill:#FFFFFF;}
	.st2{fill:none;}
</style>
<rect y="0" class="st0" width="276.7" height="197.8"/>
<title>500_F_320769705_OE2w7ccS787cB43RjCXjWhANU1zy0KfE</title>
<rect x="171.8" y="123.9" class="st1" width="41.3" height="73.9"/>
<path class="st1" d="M172.2,157.8h-71.4c-32.7,0-60.4-26.5-60.4-59.2s25.2-59.2,57.9-59.2l9.8-0.2l9.5,0.2L99.8,0
	C45.2-0.5,0.5,43.3,0,97.8s43.3,99.3,97.8,99.8c0.7,0,1.3,0,2,0c30.6,0.1,0,0,72,0.2C185.3,197.8,198.9,159.8,172.2,157.8"/>
<polygon class="st1" points="117.4,0 276.7,0 256.2,39.4 134.9,39.4 "/>
<polygon class="st1" points="241.9,61.9 118.7,61.9 77.9,134.1 119.9,134.1 141.8,100.8 217.5,101.1 "/>
<line class="st2" x1="-30.2" y1="67.2" x2="-30.2" y2="94.7"/>
</svg>
