<?xml version="1.0" encoding="utf-8"?>
<!-- Generator: Adobe Illustrator 23.0.1, SVG Export Plug-In . SVG Version: 6.00 Build 0)  -->
<svg version="1.1" id="Camada_1" xmlns="http://www.w3.org/2000/svg" xmlns:xlink="http://www.w3.org/1999/xlink" x="0px" y="0px"
	 viewBox="0 0 306.9 197.8" style="enable-background:new 0 0 306.9 197.8;" xml:space="preserve">
<style type="text/css">
	.st0{fill:none;}
</style>
<title>500_F_320769705_OE2w7ccS787cB43RjCXjWhANU1zy0KfE</title>
<rect x="202" y="123.9" width="41.3" height="73.9"/>
<path d="M202.4,157.8H131c-32.7,0-60.4-26.5-60.4-59.2s25.2-59.2,57.9-59.2l9.8-0.2l9.5,0.2L130,0C75.4-0.5,30.7,43.3,30.2,97.8
	s43.3,99.3,97.8,99.8c0.7,0,1.3,0,2,0c30.6,0.1,0,0,72,0.2C215.5,197.8,229.1,159.8,202.4,157.8"/>
<polygon points="147.6,0 306.9,0 286.4,39.4 165.1,39.4 "/>
<polygon points="272.1,61.9 148.9,61.9 108.1,134.1 150.1,134.1 172,100.8 247.7,101.1 "/>
<line class="st0" x1="0" y1="67.2" x2="0" y2="94.7"/>
</svg>
